<svg width="512" height="512" viewBox="0 0 512 512" fill="none" xmlns="http://www.w3.org/2000/svg">
  <rect width="512" height="512" rx="108" fill="#3b82f6"/>
  <path d="M148 188C148 172.536 160.536 160 176 160H240C255.464 160 268 172.536 268 188V200C268 215.464 255.464 228 240 228H188V276C188 291.464 175.464 304 160 304C144.536 304 132 291.464 132 276V204C132 194.059 140.059 186 150 186H148V188Z" fill="white"/>
  <path d="M324 324C324 339.464 311.464 352 296 352H232C216.536 352 204 339.464 204 324V312C204 296.536 216.536 284 232 284H284V236C284 220.536 296.536 208 312 208C327.464 208 340 220.536 340 236V308C340 317.941 331.941 326 322 326H324V324Z" fill="white"/>
  <circle cx="372" cy="372" r="28" fill="white"/>
</svg>